<?xml version="1.0" encoding="utf-8"?>
<!-- Generator: Adobe Illustrator 15.1.0, SVG Export Plug-In  -->
<!DOCTYPE svg PUBLIC "-//W3C//DTD SVG 1.1//EN" "http://www.w3.org/Graphics/SVG/1.1/DTD/svg11.dtd" [
	<!ENTITY ns_flows "http://ns.adobe.com/Flows/1.0/">
]>
<svg version="1.1"
	 xmlns="http://www.w3.org/2000/svg" xmlns:xlink="http://www.w3.org/1999/xlink" xmlns:a="http://ns.adobe.com/AdobeSVGViewerExtensions/3.0/"
	 x="0px" y="0px" width="529px" height="338px" viewBox="-0.442 -0.744 529 338" enable-background="new -0.442 -0.744 529 338"
	 xml:space="preserve">
<defs>
</defs>
<path fill="#FFFFFF" d="M263.848,31.071h-39.132v46.034h39.129c32.363,0,58.693,26.33,58.693,58.693
	c0,32.364-26.33,58.691-58.693,58.691c-32.364,0-58.691-26.327-58.691-58.691v-34.524V77.104V0h-46.036v135.798
	c0,57.838,46.89,104.725,104.728,104.725s104.727-46.887,104.727-104.725C368.571,77.957,321.683,31.071,263.848,31.071"/>
<path fill="#9FCC3B" d="M313.197,124.501c-0.749,0.046-1.522,0.073-2.342,0.061c-11.162,0.563-29.246-5.01-50.471-12.327
	c-20.853-7.184-37.393-4.182-47.177,4.75v18.813c0,27.92,22.717,50.637,50.637,50.637c27.926,0,50.637-22.717,50.637-50.637
	C314.481,131.916,314.028,128.135,313.197,124.501 M248.311,147.307c-5.618,0-10.166-4.549-10.166-10.164
	c0-5.618,4.548-10.166,10.166-10.166c5.612,0,10.166,4.548,10.166,10.166C258.477,142.758,253.923,147.307,248.311,147.307
	 M264.229,168.785c-3.601,0-6.522-2.919-6.522-6.52s2.922-6.52,6.522-6.52s6.521,2.919,6.521,6.52S267.83,168.785,264.229,168.785"
	/>
<path fill="#FFFFFF" d="M47.978,314.276c0,13.403-8.009,22.313-20.352,22.313c-5.722,0-10.38-2.293-13.486-6.375v5.883H0v-60.643
	h14.14v22.396c3.105-4.007,7.599-6.297,13.159-6.297C39.724,291.553,47.978,300.625,47.978,314.276 M33.758,313.867
	c0-6.704-4.007-11.444-9.892-11.444c-5.722,0-9.726,4.74-9.726,11.444c0,6.865,4.004,11.527,9.726,11.527
	C29.75,325.394,33.758,320.652,33.758,313.867"/>
<path fill="#FFFFFF" d="M95.059,317.874H64.08c1.394,5.227,5.154,8.17,10.38,8.17c3.846,0,7.602-1.549,10.546-4.49l7.437,7.271
	c-4.496,4.9-11.117,7.764-19.208,7.764c-14.381,0-23.374-8.992-23.374-22.396c0-13.65,9.319-22.641,22.968-22.641
	C88.355,291.553,96.04,301.771,95.059,317.874 M81.49,310.272c0-5.396-3.429-8.914-8.497-8.914c-4.906,0-8.259,3.599-9.158,8.914
	H81.49z"/>
<path fill="#FFFFFF" d="M142.22,317.874h-30.976c1.388,5.227,5.147,8.17,10.38,8.17c3.84,0,7.6-1.549,10.546-4.49l7.434,7.271
	c-4.493,4.9-11.114,7.764-19.208,7.764c-14.382,0-23.374-8.992-23.374-22.396c0-13.65,9.319-22.641,22.971-22.641
	C135.52,291.553,143.198,301.771,142.22,317.874 M128.654,310.272c0-5.396-3.436-8.914-8.503-8.914
	c-4.903,0-8.253,3.599-9.152,8.914H128.654z"/>
<polygon fill="#FFFFFF" points="162.406,324.085 162.406,336.097 148.272,336.097 148.272,275.454 162.406,275.454 162.406,307.49 
	176.956,292.045 192.973,292.045 176.791,308.964 193.468,336.097 176.712,336.097 167.15,319.097 "/>
<path fill="#FFFFFF" d="M272.015,308.31v27.788h-14.058v-23.866c0-5.227-2.946-8.421-7.602-8.421
	c-5.313,0.165-8.583,4.499-8.583,10.466v21.821h-14.137v-23.866c0-5.227-2.861-8.421-7.52-8.421
	c-5.396,0.165-8.745,4.499-8.745,10.466v21.821h-14.058v-44.052h14.058v7.275c3.022-5.233,8.091-7.85,14.547-7.933
	c7.191,0,12.504,3.763,14.714,9.971c2.855-6.534,8.253-9.888,15.528-9.971C265.801,291.388,272.015,298.009,272.015,308.31"/>
<path fill="#FFFFFF" d="M319.018,307.325v28.772h-13.816v-5.07c-2.858,3.766-7.52,5.725-13.486,5.725
	c-9.396,0-15.118-5.725-15.118-13.813c0-8.338,5.967-13.242,16.916-13.321h11.609v-0.654c0-4.334-2.861-6.951-8.587-6.951
	c-3.677,0-8.494,1.312-13.152,3.681l-4.011-9.316c6.865-3.188,13.077-4.989,20.438-4.989
	C311.901,291.388,318.932,297.357,319.018,307.325 M305.122,321.142v-3.925h-8.907c-4.252,0-6.377,1.474-6.377,4.744
	c0,3.186,2.287,5.227,6.209,5.227C300.463,327.187,304.22,324.74,305.122,321.142"/>
<path fill="#FFFFFF" d="M371.977,308.31v27.788h-14.058v-23.866c0-5.147-3.022-8.339-7.764-8.339c-5.147,0-8.415,3.681-8.989,8.913
	v23.292h-14.141v-44.052h14.141v7.192c3.1-5.15,8.173-7.767,14.715-7.85C365.601,291.388,371.977,298.009,371.977,308.31"/>
<rect x="382.522" y="275.454" fill="#FFFFFF" width="6.376" height="60.643"/>
<path fill="#FFFFFF" d="M429.516,329.476c-3.43,4.662-8.901,6.949-15.772,6.949c-8.904,0-14.629-5.719-14.629-13.16
	c0-7.519,5.97-12.256,16.103-12.342h14.143v-2.53c0-6.294-3.928-10.057-11.526-10.057c-4.744,0-9.151,1.8-13.648,4.902l-2.699-4.655
	c5.558-3.677,10.219-5.804,17.57-5.804c10.628,0,16.515,5.643,16.591,14.879l0.083,28.439h-6.214V329.476z M429.438,321.22v-5.15
	h-13.403c-7.195,0-10.951,2.21-10.951,6.951c0,4.738,3.842,7.848,9.888,7.848C422.246,330.869,427.804,327.187,429.438,321.22"/>
<path fill="#FFFFFF" d="M491.963,314.686c0,12.75-8.339,21.656-20.514,21.656c-7.681,0-13.563-3.512-16.753-9.479v9.234h-6.376
	v-60.643h6.376v26.889c3.19-6.049,9.072-9.563,16.595-9.563C483.469,292.779,491.963,301.771,491.963,314.686 M485.507,314.521
	c0-9.233-6.376-16.017-15.362-16.017c-9.072,0-15.448,6.7-15.448,16.017c0,9.399,6.376,16.02,15.448,16.02
	C479.131,330.541,485.507,323.837,485.507,314.521"/>
<path fill="#FFFFFF" d="M526.295,296.703l-2.445,5.068c-3.355-2.127-7.685-3.516-11.694-3.516c-4.823,0-8.498,1.719-8.498,5.72
	c0,9.564,24.032,4.661,24.032,20.11c0,8.498-7.525,12.256-15.772,12.256c-6.135,0-12.429-2.123-16.516-6.049l2.455-4.82
	c3.674,3.434,9.233,5.479,14.299,5.479c5.074,0,9.157-1.883,9.237-6.133c0.244-10.376-23.866-5.066-23.781-20.347
	c0-8.26,7.11-11.691,14.956-11.691C517.715,292.779,522.7,294.252,526.295,296.703"/>
</svg>
